<?xml version="1.0" standalone="no"?>
<!DOCTYPE svg PUBLIC "-//W3C//DTD SVG 20010904//EN"
 "http://www.w3.org/TR/2001/REC-SVG-20010904/DTD/svg10.dtd">
<svg version="1.0" xmlns="http://www.w3.org/2000/svg"
 width="573.000000pt" height="576.000000pt" viewBox="0 0 573.000000 576.000000"
 preserveAspectRatio="xMidYMid meet">

<g transform="translate(0.000000,576.000000) scale(0.100000,-0.100000)"
fill="#000000" stroke="none">
<path d="M2500 5690 c-69 -11 -192 -35 -275 -53 l-150 -32 0 -282 c0 -155 3
-284 7 -288 4 -4 42 4 85 19 102 33 256 71 367 91 104 18 575 21 691 5 93 -14
299 -64 392 -96 41 -14 78 -23 81 -19 10 10 14 498 5 536 -8 28 -16 35 -61 50
-157 54 -384 80 -727 85 -253 3 -306 1 -415 -16z"/>
<path d="M3820 5270 l0 -288 108 -57 c227 -120 423 -266 598 -446 174 -179
308 -368 416 -584 52 -106 61 -132 66 -194 4 -65 2 -74 -22 -109 -28 -41 -81
-76 -132 -86 l-31 -7 -6 -136 c-4 -75 -7 -270 -7 -434 l0 -297 28 -6 c15 -3
52 -8 82 -12 105 -12 158 -47 186 -120 14 -38 15 -54 4 -131 -15 -106 -83
-311 -150 -448 -88 -182 -186 -331 -371 -563 l-43 -53 187 -187 186 -186 32
29 c100 95 254 297 366 480 356 581 481 1290 351 1990 -51 281 -160 580 -306
840 -125 225 -267 410 -472 615 -239 241 -442 386 -745 536 -104 51 -220 104
-257 118 l-68 25 0 -289z"/>
<path d="M1835 5511 c-238 -99 -529 -270 -725 -427 -107 -86 -324 -303 -413
-414 -376 -467 -589 -1014 -627 -1609 -19 -284 10 -592 80 -868 43 -168 136
-425 200 -554 112 -223 319 -517 462 -656 l53 -53 188 188 187 188 -48 54
c-230 261 -394 554 -490 878 -56 187 -55 238 10 308 44 48 84 64 163 64 28 0
60 3 73 6 l22 6 0 439 c0 413 -1 439 -18 439 -24 0 -91 37 -125 69 -87 81 -74
173 59 412 225 402 572 736 988 949 l106 55 0 71 c0 39 -3 166 -7 282 -7 248
5 233 -138 173z"/>
<path d="M2700 4134 c-604 -55 -1024 -196 -1517 -508 l-113 -71 0 -477 0 -478
103 0 c56 -1 147 -5 203 -9 167 -14 250 -69 329 -219 20 -40 41 -72 45 -72 4
0 40 14 80 31 70 30 76 30 204 27 155 -4 191 -17 287 -105 149 -138 189 -369
95 -554 l-33 -65 18 -58 c25 -81 31 -195 21 -381 -10 -189 -23 -225 -113 -317
-46 -47 -67 -60 -123 -77 -88 -27 -188 -28 -259 -1 -113 42 -375 213 -550 358
l-79 65 -189 -189 -190 -189 43 -39 c145 -132 394 -309 569 -404 443 -242
1050 -380 1519 -344 546 42 1028 208 1440 498 98 69 197 148 318 254 l52 46
-190 189 -189 189 -25 -19 c-14 -11 -62 -51 -108 -88 -186 -153 -444 -301
-579 -332 -75 -17 -149 -9 -223 24 -64 28 -143 105 -180 176 l-31 60 0 240 c0
229 1 242 23 289 l22 49 -29 46 c-46 74 -56 115 -56 246 0 117 1 122 34 190
106 216 340 306 583 225 49 -16 91 -30 93 -30 2 0 23 32 46 72 51 87 108 151
166 185 50 29 162 42 376 42 l117 1 0 473 -1 472 -142 88 c-519 323 -1038 479
-1627 491 -107 2 -215 2 -240 0z m421 -554 c188 -63 360 -222 441 -408 46
-107 53 -143 52 -287 0 -124 -3 -149 -26 -218 -82 -243 -279 -427 -529 -492
-89 -24 -286 -16 -384 15 -182 57 -335 186 -422 355 -70 136 -87 203 -87 345
0 132 16 206 69 315 81 169 281 337 455 385 115 32 320 27 431 -10z m-1321
-306 c0 -65 0 -66 -50 -117 l-50 -52 -40 42 c-39 42 -40 43 -40 118 l0 75 90
0 90 0 0 -66z m2345 41 c36 -35 34 -85 -6 -124 -40 -41 -80 -41 -120 -2 -41
41 -37 102 10 138 28 22 89 16 116 -12z m-2527 -198 l47 -47 -43 -42 c-41 -41
-44 -43 -117 -46 l-75 -4 0 97 0 97 70 -4 c69 -4 72 -5 118 -51z m350 -39 l-3
-93 -54 -3 c-65 -4 -98 8 -142 54 l-33 34 30 31 c49 53 83 69 147 69 l58 0 -3
-92z m1985 62 c32 -25 43 -70 25 -107 -32 -68 -130 -66 -163 4 -16 33 -16 38
-1 70 25 54 92 69 139 33z m375 0 c29 -27 30 -98 3 -131 -25 -31 -98 -34 -130
-5 -31 28 -29 99 4 131 31 32 91 34 123 5z m-2574 -160 c45 -48 46 -51 46
-115 l0 -65 -90 0 -90 0 0 75 c0 72 1 76 36 115 20 22 40 40 44 40 4 0 28 -22
54 -50z m2372 -18 c75 -61 47 -162 -46 -162 -90 0 -124 113 -47 160 39 24 65
25 93 2z"/>
<path d="M2735 3504 c-69 -17 -188 -78 -251 -130 -148 -121 -233 -329 -221
-534 10 -157 58 -268 166 -382 134 -143 266 -200 461 -201 102 -1 125 2 200
28 264 91 430 317 433 590 1 121 -13 185 -63 290 -86 179 -217 284 -415 335
-92 24 -221 25 -310 4z m261 -175 c32 -6 81 -23 108 -37 70 -38 166 -136 201
-207 29 -58 30 -64 30 -200 0 -133 -1 -143 -27 -191 -34 -64 -114 -153 -175
-194 -130 -85 -322 -91 -465 -13 -69 38 -153 130 -191 210 -27 58 -32 82 -35
165 -6 141 29 238 120 334 120 127 250 167 434 133z"/>
<path d="M2843 3149 c-169 -22 -273 -223 -194 -378 27 -53 82 -104 138 -131
119 -56 277 0 338 119 106 210 -46 420 -282 390z"/>
<path d="M1951 2280 c-144 -31 -251 -143 -281 -295 -30 -153 50 -305 200 -382
49 -25 65 -28 155 -28 91 0 105 3 158 29 68 35 139 107 169 173 32 68 32 228
2 293 -70 151 -246 243 -403 210z m198 -164 c66 -46 96 -106 96 -191 0 -58 -5
-78 -27 -116 -76 -129 -252 -147 -359 -36 -81 82 -86 210 -13 296 56 65 95 82
185 79 65 -3 82 -7 118 -32z"/>
<path d="M3648 2251 c-74 -24 -116 -51 -168 -107 -66 -72 -84 -122 -84 -234 0
-82 3 -103 26 -153 60 -128 176 -200 323 -201 154 -1 259 61 319 187 73 155
52 298 -61 414 -97 99 -232 135 -355 94z m173 -121 c48 -13 118 -75 140 -124
34 -75 21 -153 -38 -239 -37 -54 -88 -77 -166 -77 -115 0 -203 67 -226 173
-19 82 5 152 76 219 59 56 129 72 214 48z"/>
</g>
</svg>
