<?xml version="1.0" standalone="no"?>
<!DOCTYPE svg PUBLIC "-//W3C//DTD SVG 20010904//EN"
 "http://www.w3.org/TR/2001/REC-SVG-20010904/DTD/svg10.dtd">
<svg version="1.0" xmlns="http://www.w3.org/2000/svg"
 width="745.000000pt" height="597.000000pt" viewBox="0 0 745.000000 597.000000"
 preserveAspectRatio="xMidYMid meet">

<g transform="translate(0.000000,597.000000) scale(0.100000,-0.100000)"
fill="#000000" stroke="none">
<path d="M3510 5649 c-85 -9 -241 -38 -335 -61 l-50 -13 -3 -219 c-2 -179 0
-217 11 -213 57 22 199 62 282 79 84 18 136 22 320 22 195 1 233 -2 330 -22
97 -21 215 -55 268 -77 16 -7 17 7 17 209 0 215 0 216 -22 226 -140 59 -576
96 -818 69z"/>
<path d="M2945 5506 c-316 -129 -597 -329 -812 -580 -370 -432 -550 -968 -513
-1525 5 -77 16 -179 25 -228 34 -200 129 -477 220 -638 87 -156 226 -345 318
-433 l34 -33 142 141 142 142 -43 47 c-168 180 -309 440 -378 698 -30 111 -24
148 35 203 22 21 39 26 103 30 l77 5 3 333 2 332 -23 0 c-35 0 -103 49 -121
87 -25 54 -20 81 43 208 163 330 443 610 781 780 l70 35 0 215 c0 166 -3 215
-12 214 -7 0 -49 -15 -93 -33z"/>
<path d="M4432 5325 l3 -217 92 -48 c322 -169 583 -433 743 -752 66 -131 75
-184 43 -240 -19 -32 -79 -68 -113 -68 -20 0 -20 -5 -20 -329 l0 -328 68 -7
c168 -17 197 -103 117 -341 -67 -199 -163 -370 -303 -544 l-84 -104 142 -141
141 -141 56 60 c580 630 710 1582 321 2360 -106 210 -226 375 -402 551 -145
144 -253 229 -414 325 -93 55 -303 154 -370 174 l-22 6 2 -216z"/>
<path d="M3550 4469 c-396 -33 -755 -156 -1087 -371 l-93 -60 0 -359 0 -359
133 0 c150 0 186 -8 254 -53 35 -24 56 -48 81 -96 18 -35 35 -68 38 -72 3 -5
28 4 57 19 47 24 62 27 152 27 89 0 106 -3 150 -27 115 -60 185 -177 185 -308
0 -71 -24 -156 -54 -189 -13 -14 -12 -23 6 -76 17 -52 19 -79 16 -225 -3 -156
-5 -168 -30 -216 -50 -96 -135 -147 -243 -148 -64 -1 -78 3 -155 42 -109 56
-255 154 -347 232 l-72 61 -142 -142 -142 -142 49 -44 c343 -305 760 -489
1222 -538 164 -18 242 -18 388 -4 469 45 870 217 1215 521 l81 71 -143 143
-142 143 -76 -65 c-163 -140 -388 -265 -491 -272 -113 -8 -216 52 -267 156
-27 56 -28 61 -28 227 0 153 2 174 21 211 18 36 19 43 6 60 -39 51 -55 109
-56 194 0 73 3 94 27 145 57 123 173 196 312 197 64 0 93 -7 186 -46 11 -5 23
8 45 51 34 68 84 121 139 148 34 17 65 21 198 23 l157 3 0 354 0 353 -77 50
c-363 231 -703 347 -1118 382 -135 11 -217 11 -355 -1z m366 -413 c89 -33 149
-71 214 -137 72 -73 135 -195 150 -294 45 -280 -135 -550 -413 -621 -90 -24
-230 -15 -321 20 -69 26 -175 95 -209 136 -162 195 -193 427 -84 635 64 123
218 245 347 274 108 25 223 20 316 -13z m-996 -228 c0 -47 -4 -56 -37 -90
l-37 -38 -33 32 c-30 29 -33 37 -33 90 l0 58 70 0 70 0 0 -52z m1760 32 c27
-27 25 -66 -5 -95 -30 -31 -62 -32 -92 -3 -46 43 -16 118 47 118 17 0 39 -9
50 -20z m-1898 -147 l38 -37 -32 -33 c-29 -30 -37 -33 -90 -33 l-58 0 0 70 0
70 52 0 c47 0 56 -4 90 -37z m268 -33 c0 -77 4 -73 -74 -71 -30 0 -47 8 -73
33 l-33 32 37 38 c34 35 42 38 90 38 l53 0 0 -70z m1493 42 c23 -20 22 -74 -2
-96 -30 -27 -91 -18 -110 16 -40 71 49 135 112 80z m274 6 c22 -17 25 -65 8
-92 -14 -20 -26 -26 -55 -26 -47 0 -70 21 -70 64 0 61 69 93 117 54z m-1897
-205 l0 -53 -70 0 -70 0 0 57 c0 51 4 61 32 90 l32 33 38 -37 c35 -34 38 -42
38 -90z m1755 62 c46 -45 19 -115 -45 -115 -65 0 -94 79 -44 119 35 27 59 26
89 -4z"/>
<path d="M3644 4006 c-369 -75 -511 -538 -246 -804 248 -250 677 -153 791 179
70 204 -6 436 -182 552 -103 69 -246 97 -363 73z m241 -157 c63 -30 134 -100
165 -164 21 -42 25 -65 25 -145 0 -84 -3 -102 -28 -152 -36 -73 -116 -147
-188 -173 -82 -30 -188 -26 -264 9 -223 102 -269 400 -88 566 76 69 136 91
243 87 64 -3 97 -10 135 -28z"/>
<path d="M3660 3727 c-76 -36 -117 -93 -126 -174 -10 -92 60 -187 157 -213
112 -31 234 55 246 172 10 95 -32 173 -112 209 -45 21 -127 24 -165 6z"/>
<path d="M3000 3075 c-124 -38 -207 -181 -180 -308 22 -110 109 -196 218 -215
257 -46 423 258 245 449 -74 80 -177 106 -283 74z m153 -99 c84 -35 126 -135
92 -221 -59 -156 -279 -143 -325 19 -38 136 101 257 233 202z"/>
<path d="M4330 3070 c-83 -18 -154 -71 -193 -144 -31 -58 -31 -184 0 -242 52
-98 137 -148 248 -148 147 1 253 102 263 252 6 79 -16 139 -72 200 -63 69
-160 101 -246 82z m154 -124 c71 -54 90 -128 53 -209 -32 -69 -80 -101 -152
-101 -114 1 -192 95 -171 209 8 42 58 102 101 122 47 21 127 12 169 -21z"/>
<path d="M874 782 c-52 -25 -108 -91 -124 -147 -17 -62 -9 -210 14 -255 74
-143 267 -172 373 -57 53 57 68 103 68 208 0 75 -4 92 -30 144 -44 85 -92 117
-187 122 -57 3 -82 0 -114 -15z m177 -35 c19 -12 45 -43 59 -67 22 -40 25 -57
25 -150 0 -90 -3 -112 -23 -152 -32 -65 -73 -92 -137 -92 -122 0 -179 101
-165 290 10 125 67 194 160 194 32 0 58 -7 81 -23z"/>
<path d="M1462 787 c-96 -35 -144 -111 -150 -239 -5 -98 9 -155 53 -212 58
-76 193 -104 283 -60 40 21 42 21 42 3 0 -14 7 -19 30 -19 l30 0 0 111 0 110
-27 -3 c-27 -3 -28 -5 -33 -77 -5 -73 -6 -76 -39 -95 -24 -14 -53 -20 -98 -20
-78 0 -107 19 -145 94 -24 46 -28 65 -28 139 0 111 13 154 60 205 l39 41 79 0
c71 0 84 -3 130 -32 57 -35 73 -23 22 16 -66 48 -173 65 -248 38z"/>
<path d="M3190 787 c-56 -18 -116 -86 -136 -153 -36 -125 4 -286 84 -339 77
-50 168 -55 260 -15 23 11 42 26 42 34 0 12 -8 11 -47 -6 -66 -29 -161 -30
-200 -2 -47 34 -76 106 -81 199 -9 166 52 265 161 265 53 0 105 -19 142 -52
42 -36 49 -15 8 25 -56 53 -149 71 -233 44z"/>
<path d="M5754 781 c-58 -26 -111 -92 -125 -156 -16 -70 -7 -200 15 -245 73
-143 267 -172 373 -57 53 57 68 104 68 207 -1 137 -53 225 -154 259 -50 16
-130 13 -177 -8z m177 -34 c19 -12 45 -44 59 -72 22 -43 25 -63 25 -150 0 -85
-4 -107 -23 -147 -32 -65 -73 -92 -137 -92 -62 0 -106 24 -133 73 -26 48 -34
88 -34 177 1 155 56 233 168 234 26 0 53 -8 75 -23z"/>
<path d="M6253 793 l-33 -4 0 -263 0 -263 103 -7 c173 -12 255 22 309 128 30
57 36 174 14 250 -21 70 -81 135 -142 154 -39 11 -177 14 -251 5z m257 -58
c51 -48 73 -101 78 -186 6 -96 -15 -165 -67 -219 -42 -45 -92 -56 -186 -43
l-60 8 -3 229 c-2 177 1 232 10 238 7 5 54 7 105 6 86 -3 94 -5 123 -33z"/>
<path d="M6854 775 c-133 -66 -105 -205 51 -250 164 -47 195 -69 195 -133 0
-44 -31 -85 -75 -102 -44 -17 -140 -12 -200 11 -53 20 -87 19 -55 -1 78 -50
221 -65 289 -30 78 39 115 113 91 184 -16 51 -92 104 -170 121 -127 27 -177
71 -148 132 31 65 161 83 256 34 47 -24 57 -13 15 17 -71 49 -171 56 -249 17z"/>
<path d="M387 783 c-4 -3 -7 -123 -7 -265 l0 -258 155 0 c131 0 155 2 155 15
0 13 -21 15 -125 15 l-125 0 0 250 0 250 -23 0 c-13 0 -27 -3 -30 -7z"/>
<path d="M1900 525 l0 -265 25 0 25 0 0 265 0 265 -25 0 -25 0 0 -265z"/>
<path d="M2050 775 c0 -12 17 -15 90 -15 l90 0 0 -251 0 -250 28 3 27 3 3 247
2 247 87 3 c58 2 88 7 91 16 3 9 -43 12 -207 12 -181 0 -211 -2 -211 -15z"/>
<path d="M2560 525 l0 -265 190 0 c162 0 190 2 190 15 0 13 -24 15 -160 15
l-160 0 0 110 0 109 123 3 c160 4 161 21 2 28 l-120 5 -3 108 -3 107 151 0
c127 0 150 2 150 15 0 13 -27 15 -180 15 l-180 0 0 -265z"/>
<path d="M3560 525 l0 -265 30 0 30 0 0 125 0 125 150 0 150 0 0 -125 0 -125
30 0 30 0 -2 263 -3 262 -27 3 -27 3 -3 -123 -3 -123 -147 -3 -148 -3 0 126 0
125 -30 0 -30 0 0 -265z"/>
<path d="M4960 773 c0 -10 -7 -119 -15 -243 -18 -279 -18 -270 -1 -270 14 0
19 45 32 293 4 70 10 127 13 127 4 0 52 -95 106 -210 68 -144 105 -209 114
-208 8 2 58 95 112 208 53 112 101 206 106 207 6 2 13 -43 17 -119 4 -68 9
-162 13 -210 l6 -88 28 0 29 0 -5 68 c-8 105 -25 393 -25 430 0 27 -3 32 -25
32 -20 0 -30 -10 -54 -62 -109 -233 -181 -378 -188 -378 -4 0 -55 99 -112 220
-92 194 -107 220 -128 220 -15 0 -23 -6 -23 -17z"/>
<path d="M4340 425 c0 -13 21 -15 125 -15 104 0 125 2 125 15 0 13 -21 15
-125 15 -104 0 -125 -2 -125 -15z"/>
</g>
</svg>
